<?xml version="1.0" standalone="no"?>
<!DOCTYPE svg PUBLIC "-//W3C//DTD SVG 20010904//EN"
 "http://www.w3.org/TR/2001/REC-SVG-20010904/DTD/svg10.dtd">
<svg version="1.0" xmlns="http://www.w3.org/2000/svg"
 width="474.000000pt" height="474.000000pt" viewBox="0 0 474.000000 474.000000"
 preserveAspectRatio="xMidYMid meet">
<metadata>
Created by potrace 1.14, written by Peter Selinger 2001-2017
</metadata>
<g transform="translate(0.000000,474.000000) scale(0.100000,-0.100000)"
fill="#000000" stroke="none">
<path d="M1170 4484 c-134 -25 -212 -47 -297 -85 -23 -10 -48 -20 -55 -21 -7
-2 -15 -5 -18 -9 -11 -12 -86 -54 -92 -51 -5 1 -8 -3 -8 -10 0 -6 -2 -9 -5 -6
-3 3 -25 -12 -48 -33 -23 -22 -48 -37 -55 -34 -7 3 -11 1 -8 -3 3 -5 -16 -26
-42 -47 -26 -22 -49 -44 -51 -49 -10 -24 -52 -57 -64 -50 -9 6 -9 5 0 -7 10
-13 7 -22 -20 -51 -17 -19 -33 -39 -34 -44 -6 -24 -67 -134 -74 -134 -5 0 -5
-7 -2 -17 4 -11 3 -14 -5 -9 -7 4 -13 1 -13 -6 -5 -44 -8 -59 -22 -104 -42
-132 -52 -375 -21 -539 9 -49 18 -99 19 -110 2 -11 8 -35 14 -53 5 -18 10 -33
10 -35 0 -1 5 -15 11 -32 7 -16 13 -34 14 -40 2 -5 6 -18 10 -27 4 -9 9 -22
10 -30 1 -7 8 -24 15 -36 7 -13 10 -26 7 -29 -2 -3 -1 -10 5 -17 5 -6 37 -67
70 -136 34 -69 75 -144 90 -167 16 -23 29 -44 29 -48 0 -3 10 -19 21 -34 13
-17 18 -34 14 -42 -5 -8 -4 -10 3 -5 7 4 12 3 12 -3 0 -5 6 -16 13 -23 7 -7
33 -42 57 -78 24 -36 59 -83 77 -105 19 -21 31 -45 28 -53 -2 -7 -1 -10 4 -7
6 3 24 -16 42 -42 18 -27 50 -69 72 -95 21 -27 35 -48 30 -48 -4 0 -1 -6 7
-13 18 -14 143 -177 137 -177 -3 0 9 -15 27 -32 17 -18 42 -49 56 -67 14 -19
38 -50 54 -68 15 -18 24 -33 20 -33 -5 0 4 -12 19 -26 15 -14 24 -30 21 -36
-4 -7 -2 -8 5 -4 7 4 15 -2 20 -16 6 -13 10 -19 10 -13 1 5 13 -8 28 -30 15
-22 26 -44 25 -48 -1 -5 2 -6 7 -3 11 7 67 -65 63 -79 -2 -5 -1 -7 3 -3 4 4
26 -16 48 -45 22 -29 53 -65 68 -82 119 -132 170 -196 163 -206 -4 -7 -3 -9 3
-6 13 8 36 -17 25 -28 -4 -5 -2 -6 3 -3 13 7 36 -17 27 -28 -4 -4 -2 -4 5 0
14 8 45 -33 36 -48 -3 -6 -2 -8 2 -3 10 9 75 -51 75 -69 0 -6 11 -19 25 -28
14 -9 25 -23 25 -31 0 -9 12 -20 26 -25 14 -6 23 -14 20 -18 -3 -5 8 -16 25
-26 16 -9 30 -21 30 -27 1 -5 2 -13 3 -19 0 -5 6 -10 11 -11 21 -2 45 -20 45
-35 0 -9 5 -12 12 -8 7 5 9 2 5 -9 -4 -10 -2 -14 7 -11 7 3 18 -7 26 -20 7
-14 16 -23 20 -21 9 6 56 -55 52 -67 -1 -5 2 -7 8 -3 14 9 82 -56 75 -73 -2
-7 0 -10 5 -7 6 3 10 2 10 -3 0 -10 8 -12 60 -15 19 -1 35 3 35 8 0 6 13 25
29 42 24 28 32 31 45 20 14 -10 14 -10 4 4 -11 13 -9 20 10 37 13 12 25 21 28
20 2 -2 3 -1 2 1 -2 2 2 10 8 18 10 11 15 11 28 1 14 -11 14 -11 4 3 -10 12
-3 24 42 68 30 29 59 50 65 46 5 -3 7 -11 4 -17 -4 -7 -2 -8 5 -4 9 6 9 11 0
22 -9 11 -8 19 6 34 10 11 22 17 27 14 4 -3 8 -2 7 3 -4 21 2 24 19 12 15 -13
16 -12 4 3 -16 20 -6 42 15 34 8 -3 11 -2 8 3 -3 5 11 27 31 48 20 21 33 32
29 24 -6 -9 -4 -12 3 -7 7 4 12 13 12 20 0 7 23 34 50 60 28 26 50 52 50 58 0
5 6 8 14 5 8 -3 13 1 12 11 0 10 6 16 16 16 9 -1 14 4 12 11 -3 7 4 19 15 27
11 8 34 32 52 54 17 21 35 38 40 37 5 -2 8 1 6 5 -1 5 25 39 58 77 33 37 82
93 109 124 27 31 61 68 75 83 14 15 39 43 55 62 15 19 39 46 52 60 13 15 28
35 34 47 6 11 16 16 22 13 6 -4 8 -3 5 3 -8 13 27 46 38 36 4 -5 5 -2 1 4 -9
16 34 74 48 66 6 -3 8 -3 4 1 -6 8 38 71 91 131 14 17 48 59 74 95 88 120 109
145 122 144 7 -1 11 6 8 15 -2 9 9 29 26 46 17 17 31 36 31 43 0 6 5 12 11 12
5 0 8 4 5 9 -4 5 -3 11 2 13 4 1 22 27 41 56 18 28 37 52 42 52 5 0 8 3 7 8
-3 9 29 69 39 74 5 1 28 36 52 76 23 40 49 76 57 79 9 3 13 11 10 19 -3 7 -2
14 2 16 4 2 32 51 62 110 30 58 58 104 62 102 4 -2 6 4 6 13 -1 28 78 214 87
205 5 -4 5 -2 2 4 -4 7 4 54 17 105 67 267 58 556 -27 794 -6 17 -27 65 -48
107 -20 42 -34 80 -30 84 3 4 1 4 -6 0 -7 -4 -14 3 -19 16 -3 12 -19 36 -35
52 -16 17 -29 36 -29 41 0 6 -16 25 -35 44 -19 19 -31 39 -28 45 3 6 2 8 -2 3
-10 -9 -47 22 -39 34 3 5 -1 6 -9 3 -8 -3 -18 0 -23 7 -5 8 -3 10 6 4 9 -5 11
-4 6 3 -4 7 -14 12 -22 12 -8 0 -26 11 -40 25 -61 62 -286 159 -399 174 -79
10 -330 6 -361 -7 -44 -16 -173 -54 -180 -52 -4 1 -10 -2 -13 -7 -3 -4 -40
-24 -81 -43 -41 -19 -76 -38 -78 -42 -2 -4 -10 -4 -19 -1 -10 4 -14 2 -10 -3
3 -6 -8 -19 -26 -29 -34 -20 -120 -83 -151 -112 -11 -10 -15 -12 -11 -4 5 8
-49 -44 -118 -115 -69 -71 -135 -138 -146 -150 -12 -12 -21 -26 -21 -32 0 -7
-9 -17 -20 -24 -11 -7 -20 -18 -20 -25 0 -22 -32 -32 -49 -15 -9 9 -14 18 -13
20 2 3 0 8 -5 11 -16 11 -78 95 -64 87 14 -9 -33 43 -146 164 -35 37 -63 72
-63 78 0 7 -6 11 -12 9 -7 -1 -12 4 -11 10 2 7 0 12 -5 10 -7 -2 -105 70 -141
103 -59 55 -255 148 -385 181 -79 21 -294 35 -356 23z"/>
<path d="M1127 1563 c-10 -9 -9 -23 1 -23 5 0 9 7 9 15 0 17 -1 18 -10 8z"/>
<path d="M2623 493 c4 -3 1 -13 -6 -22 -11 -14 -10 -14 5 -2 16 12 16 31 1 31
-4 0 -3 -3 0 -7z"/>
<path d="M2498 363 c6 -2 9 -10 6 -15 -4 -7 -2 -8 5 -4 13 9 5 26 -12 25 -9 0
-8 -2 1 -6z"/>
</g>
</svg>
